<svg xmlns="http://www.w3.org/2000/svg" width="1923.61" height="949.04" viewBox="0 0 1923.61 949.04"><defs><style>.a{fill:none;stroke:#000;stroke-miterlimit:10;}</style></defs><title>buffer upper a</title><path class="a" d="M1883.57,696.54l23,171-202,16-254,65-252-8-270.81-14L789.82,938.21,644.57,873.85l-125,37.63-87.64-37.32-80.35,13.37L257.07,706.15,83.87,690.55,112.14,568,.57,494.54l36-141,35-87,76-100,14-160h122l-20,216,368,170,254-58.83,383,21.83,230-64,127,58,130.62-104.82L1749.57,9.54l140-9-18,275,51.52,261.59Z"/></svg>