<svg xmlns="http://www.w3.org/2000/svg" width="646.8" height="204.54" viewBox="0 0 646.8 204.54"><defs><style>.a{fill:none;stroke:#000;stroke-miterlimit:10;}</style></defs><title>lake svg</title><path class="a" d="M267.18,7.61c-64.24,21.8-102.37,47.31-134.5,48.91-16.79.83-61.94,1.06-107.6,24.45C15,86.14,7,91.35,3.07,100.54-8,126.35,18.86,151.79,42.45,171.27c29,24,72.56,14.35,136,19,104.22,7.64,118-5.24,189,0,110.1,8.12,182.65,26.44,225,0,27.08-16.91,52-19.84,53.78-50.6,1.37-23.22-18.73-50.2-24.45-73.36C603.24-8.72,304.52-5.05,267.18,7.61Z"/></svg>